<mxfile host="Electron" modified="2024-04-09T21:56:16.099Z" agent="Mozilla/5.0 (Macintosh; Intel Mac OS X 10_15_7) AppleWebKit/537.36 (KHTML, like Gecko) draw.io/24.1.0 Chrome/120.0.6099.109 Electron/28.1.0 Safari/537.36" etag="6ieptI1Qs-kE39opsnG8" version="24.1.0" type="device">
  <diagram name="Page-1" id="rDK8aL8TXcKz7fCKNSWP">
    <mxGraphModel dx="1242" dy="878" grid="1" gridSize="10" guides="1" tooltips="1" connect="1" arrows="1" fold="1" page="1" pageScale="1" pageWidth="850" pageHeight="1100" math="0" shadow="0">
      <root>
        <mxCell id="0" />
        <mxCell id="1" parent="0" />
        <mxCell id="mlN33fdVddEvLNPaz4eA-2" value="&lt;font style=&quot;font-size: 18px;&quot;&gt;Transformers (HF)&lt;/font&gt;" style="rounded=1;whiteSpace=wrap;html=1;strokeWidth=5;fillWeight=4;hachureGap=8;hachureAngle=45;fillColor=#60a917;sketch=1;fontColor=#ffffff;strokeColor=#2D7600;" vertex="1" parent="1">
          <mxGeometry x="236" y="180" width="380" height="80" as="geometry" />
        </mxCell>
        <mxCell id="mlN33fdVddEvLNPaz4eA-3" value="&lt;font style=&quot;font-size: 18px;&quot;&gt;PyTorch/Tensorflow&lt;/font&gt;" style="rounded=1;whiteSpace=wrap;html=1;strokeWidth=5;fillWeight=4;hachureGap=8;hachureAngle=45;fillColor=#1ba1e2;sketch=1;fontColor=#ffffff;strokeColor=#006EAF;" vertex="1" parent="1">
          <mxGeometry x="237" y="270" width="380" height="80" as="geometry" />
        </mxCell>
        <mxCell id="mlN33fdVddEvLNPaz4eA-4" value="&lt;font style=&quot;font-size: 18px;&quot;&gt;CUDA&lt;/font&gt;" style="rounded=1;whiteSpace=wrap;html=1;strokeWidth=5;fillWeight=4;hachureGap=8;hachureAngle=45;fillColor=#d80073;sketch=1;fontColor=#ffffff;strokeColor=#A50040;" vertex="1" parent="1">
          <mxGeometry x="236" y="360" width="380" height="80" as="geometry" />
        </mxCell>
        <mxCell id="mlN33fdVddEvLNPaz4eA-6" value="&lt;b&gt;&lt;font style=&quot;font-size: 18px;&quot; color=&quot;#ffffff&quot;&gt;GPU&lt;/font&gt;&lt;/b&gt;" style="rounded=1;whiteSpace=wrap;html=1;strokeWidth=5;fillWeight=4;hachureGap=8;hachureAngle=45;fillColor=#f0a30a;sketch=1;fontColor=#000000;strokeColor=#BD7000;" vertex="1" parent="1">
          <mxGeometry x="238" y="450" width="124" height="80" as="geometry" />
        </mxCell>
        <mxCell id="mlN33fdVddEvLNPaz4eA-14" value="" style="edgeStyle=orthogonalEdgeStyle;rounded=0;orthogonalLoop=1;jettySize=auto;html=1;strokeWidth=5;exitX=0.5;exitY=1;exitDx=0;exitDy=0;entryX=0.5;entryY=0;entryDx=0;entryDy=0;" edge="1" parent="1" source="mlN33fdVddEvLNPaz4eA-15" target="mlN33fdVddEvLNPaz4eA-2">
          <mxGeometry relative="1" as="geometry">
            <mxPoint x="422.5" y="120" as="sourcePoint" />
            <mxPoint x="555" y="190" as="targetPoint" />
          </mxGeometry>
        </mxCell>
        <mxCell id="mlN33fdVddEvLNPaz4eA-15" value="&lt;font style=&quot;font-size: 18px;&quot;&gt;Model Weights&lt;/font&gt;" style="rounded=1;whiteSpace=wrap;html=1;strokeWidth=2;fillWeight=4;hachureGap=8;hachureAngle=45;fillColor=#e51400;sketch=1;fontColor=#ffffff;strokeColor=#B20000;" vertex="1" parent="1">
          <mxGeometry x="232" y="55" width="388" height="80" as="geometry" />
        </mxCell>
        <mxCell id="mlN33fdVddEvLNPaz4eA-20" value="&lt;b&gt;&lt;font style=&quot;font-size: 18px;&quot; color=&quot;#ffffff&quot;&gt;GPU&lt;/font&gt;&lt;/b&gt;" style="rounded=1;whiteSpace=wrap;html=1;strokeWidth=5;fillWeight=4;hachureGap=8;hachureAngle=45;fillColor=#f0a30a;sketch=1;fontColor=#000000;strokeColor=#BD7000;" vertex="1" parent="1">
          <mxGeometry x="367" y="450" width="124" height="80" as="geometry" />
        </mxCell>
        <mxCell id="mlN33fdVddEvLNPaz4eA-21" value="&lt;b&gt;&lt;font style=&quot;font-size: 18px;&quot; color=&quot;#ffffff&quot;&gt;GPU&lt;/font&gt;&lt;/b&gt;" style="rounded=1;whiteSpace=wrap;html=1;strokeWidth=5;fillWeight=4;hachureGap=8;hachureAngle=45;fillColor=#f0a30a;sketch=1;fontColor=#000000;strokeColor=#BD7000;" vertex="1" parent="1">
          <mxGeometry x="496" y="450" width="124" height="80" as="geometry" />
        </mxCell>
      </root>
    </mxGraphModel>
  </diagram>
</mxfile>
